inDegrees=yes
name=flex_l_res.mot
DataType=double
version=3
OpenSimVersion=4.4-2022-07-23-0e9fedc
endheader
time	pelvis_tilt	pelvis_list	pelvis_rotation	pelvis_tx	pelvis_ty	pelvis_tz	hip_flexion_r	hip_adduction_r	hip_rotation_r	knee_angle_r	knee_angle_r_beta	ankle_angle_r	subtalar_angle_r	mtp_angle_r	hip_flexion_l	hip_adduction_l	hip_rotation_l	knee_angle_l	knee_angle_l_beta	ankle_angle_l	subtalar_angle_l	mtp_angle_l	lumbar_extension	lumbar_bending	lumbar_rotation	arm_flex_r	arm_add_r	arm_rot_r	elbow_flex_r	pro_sup_r	wrist_flex_r	wrist_dev_r	arm_flex_l	arm_add_l	arm_rot_l	elbow_flex_l	pro_sup_l	wrist_flex_l	wrist_dev_l
0	0.005874400075683637	0.001324271798819376	90.01055677924589	0	0.9399999999999999	0	45.03843685524302	-9.927186016218677	0	59.13381539814533	1.032079777964158	-4.940101431185812	0	0	45.03843685524302	-9.927186016218677	0	59.13381539814533	1.032079777964158	-4.940101431185812	0	0	0.006151987774168689	-0.001585155386228769	-0.003181298826102726	0	-12.61014425253251	0	75.39583782620484	45.06414538728888	0	0	-0.2484324945135945	-0.05969783983159824	-0.0004884361995821751	0.4854403271765284	45.06414538728888	0	0
1	-0.006276260839171161	-0.006051044689343265	89.99638570836329	0	0.9399999999999999	0	45.03842804774067	-9.927244378481902	0	59.13397111037018	1.032082495655167	-4.940164072163097	0	0	45.03842804774067	-9.927244378481902	0	59.13397111037018	1.032082495655167	-4.940164072163097	0	0	0.00983872633364434	-0.0133457233282604	0.00958254148393433	0	-12.6104245692274	0	75.39574716104518	45.06410472614408	0	0	-0.1510640616716431	0.3910504809575708	-0.3647369312800249	0.3806926197799509	45.06410472614408	0	0
2	0.001246792767065221	0.002836756170896839	90.00095697153886	0	0.9399999999999999	0	45.03663418407545	-9.936580647497696	0	59.16631323094174	1.032646972146217	-4.949296248668497	0	0	45.03663418407545	-9.936580647497696	0	59.16631323094174	1.032646972146217	-4.949296248668497	0	0	-0.005577624231765157	0.000594677089473349	-0.0005747042243612003	0	-12.67045932343279	0	75.37728112278054	45.05714781935632	0	0	-0.1469533874506346	0.3957678903896456	-0.367155628927857	0.3798071216958492	45.05714781935632	0	0
3	-0.0005265318331602671	3.101814772458259e-05	90.00016546870744	0	0.9399999999999999	0	45.03484415633515	-9.945154050339006	0	59.19889000886781	1.033215544180718	-4.957477866956881	0	0	45.03484415633515	-9.945154050339006	0	59.19889000886781	1.033215544180718	-4.957477866956881	0	0	-0.0003752546135437966	-0.001185519650073962	-9.233133780293727e-05	0	-12.73167082618739	0	75.35885461311636	45.05062876459566	0	0	-0.1484875014883826	0.394527560653295	-0.3672481881180098	0.3791717782900567	45.05062876459566	0	0
4	0.006550918495598461	0.005177034349323532	89.99871490415443	0	0.9399999999999999	0	45.03237597532511	-9.95626499374554	0	59.24412577715512	1.034005057277001	-4.967886550208654	0	0	45.03237597532511	-9.95626499374554	0	59.24412577715512	1.034005057277001	-4.967886550208654	0	0	-0.01176425258550336	0.01525750562190376	0.0009178087731663413	0	-12.81745132698225	0	75.33344724674568	45.0420518463391	0	0	-0.1994585602216503	0.3877082834920541	-0.3659444639829238	0.5010331047345122	45.0420518463391	0	0
5	0.02082233951566411	-0.01127590917956626	90.01161705609165	0	0.9399999999999999	0	45.03237144985434	-9.9562863363969	0	59.24420879640035	1.034006506236173	-4.967906990022355	0	0	45.03237144985434	-9.9562863363969	0	59.24420879640035	1.034006506236173	-4.967906990022355	0	0	0.02051751540223213	0.03545290709139742	-0.01664608469984926	0	-12.81760765230076	0	75.33340066165768	45.04203561165228	0	0	0.04952059994316118	0.07383783874399705	-0.1897768918334603	0.6681203164657866	45.04203561165228	0	0
6	0.02750152862688428	-0.0188856448166109	89.97504313505767	0	0.9399999999999999	0	45.03236803509318	-9.956302401505317	0	59.24427154609551	1.034007601424958	-4.967922366991806	0	0	45.03236803509318	-9.956302401505317	0	59.24427154609551	1.034007601424958	-4.967922366991806	0	0	0.01832631862543639	0.05518243554334189	0.04150369673703724	0	-12.81772575799391	0	75.33336551019022	45.0420233856349	0	0	0.1809856187182451	-0.2121517340572671	-0.5127778361641883	0.8055581352506618	45.0420233856349	0	0
7	0.01351168428168871	0.0273742803193339	89.9941352989329	0	0.9399999999999999	0	45.03217881696036	-9.956930719224921	0	59.24860624435087	1.034083256181595	-4.968477956911862	0	0	45.03217881696036	-9.956930719224921	0	59.24860624435087	1.034083256181595	-4.968477956911862	0	0	-0.04553703402013642	0.01987285236990513	0.009848798214699458	0	-12.8254170649075	0	75.33141772053094	45.04151118055884	0	0	0.7514761791000237	-1.580813540689932	-0.938979415221262	3.486590931159344	45.04151118055884	0	0
8	-9.785379476970401e-05	0.0246691382177062	89.99774696588743	0	0.9399999999999999	0	45.0320238923422	-9.957427591276611	0	59.252206636624	1.034146094881124	-4.968913125557492	0	0	45.0320238923422	-9.957427591276611	0	59.252206636624	1.034146094881124	-4.968913125557492	0	0	-0.04569262141089296	0.01071055758793981	0.01230621078889218	0	-12.83179322739671	0	75.32982294550887	45.04110296098201	0	0	1.070185271168422	-3.051314080223323	-2.296002359190623	5.331310967543935	45.04110296098201	0	0
